<svg viewBox="0 0 250 250" xmlns="http://www.w3.org/2000/svg"><g fill="#fa5d00"><path d="m109.39 156.56v93.44h-15.76v-140.47a15.58 15.58 0 0 1 15.76-15.47h46.67v46.72a15.58 15.58 0 0 1 -15.45 15.78z"/><path d="m250 0v234.22a15.84 15.84 0 0 1 -15.76 15.78h-15.45v-234.53a15.31 15.31 0 0 1 15.45-15.47z"/><path d="m187.58 0h15.42v234.22a15.78 15.78 0 0 1 -15.42 15.78h-15.76v-172a15.57 15.57 0 0 1 15.76-15.5z"/><path d="m62.42 250h-15.42v-234.53a15.31 15.31 0 0 1 15.42-15.47h15.76v171.72a15.83 15.83 0 0 1 -15.76 15.78z"/><path d="m0 250v-234.53a15.58 15.58 0 0 1 15.76-15.47h15.45v234.22a15.58 15.58 0 0 1 -15.45 15.78z"/></g></svg>
